<svg width="177" height="42" viewBox="0 0 177 42" fill="none" xmlns="http://www.w3.org/2000/svg">
<path opacity="0.5" d="M40.0652 2.25671L30.2601 36.9917C30.2102 37.1494 30.0108 37.1967 29.8945 37.0863L23.3301 30.8583L28.2492 13.4514C28.2991 13.2937 28.1495 13.1518 27.9833 13.1991L9.63617 17.8662L3.10498 11.6697C2.98865 11.5593 3.03851 11.3701 3.20469 11.3228L39.7993 2.00444C39.9655 1.97291 40.115 2.11481 40.0652 2.25671Z" fill="#00B37E"/>
<path opacity="0.5" d="M23.3297 30.858L20.8037 39.8452C20.7538 40.0029 20.5544 40.0502 20.4381 39.9398L0.0634003 20.6251C-0.0529313 20.5147 -0.00307518 20.3255 0.163113 20.2782L9.63583 17.8658L23.3297 30.858Z" fill="#00B37E"/>
<path d="M28.2484 13.4511L23.3292 30.858L9.63533 17.8659L27.9825 13.1988C28.1487 13.1515 28.2982 13.2934 28.2484 13.4511Z" fill="#00B37E"/>
<path d="M59.4013 11.3104H62.5745L67.2468 24.6653L71.9192 11.3104H75.0923L68.5211 29.5H65.9726L59.4013 11.3104ZM57.6898 11.3104H60.8505L61.4252 24.328V29.5H57.6898V11.3104ZM73.6432 11.3104H76.8163V29.5H73.0685V24.328L73.6432 11.3104ZM83.8873 27.9759L87.4727 15.9828H91.333L85.8986 31.5363C85.782 31.8778 85.6238 32.2443 85.4239 32.6357C85.2324 33.0271 84.97 33.3978 84.6369 33.7476C84.312 34.1057 83.8998 34.3972 83.4001 34.6221C82.9087 34.8469 82.3049 34.9594 81.5886 34.9594C81.2471 34.9594 80.9681 34.9385 80.7516 34.8969C80.535 34.8553 80.2769 34.797 79.977 34.722V32.086C80.0687 32.086 80.1644 32.086 80.2644 32.086C80.3643 32.0943 80.4601 32.0985 80.5517 32.0985C81.0264 32.0985 81.4137 32.0444 81.7135 31.9361C82.0134 31.8278 82.2549 31.6613 82.4381 31.4364C82.6214 31.2198 82.7671 30.9367 82.8754 30.5869L83.8873 27.9759ZM82.3882 15.9828L85.324 25.7771L85.8362 29.5874L83.3876 29.8498L78.5279 15.9828H82.3882ZM101.077 11.3104H104.251L108.923 24.6653L113.595 11.3104H116.768L110.197 29.5H107.649L101.077 11.3104ZM99.3659 11.3104H102.527L103.101 24.328V29.5H99.3659V11.3104ZM115.319 11.3104H118.492V29.5H114.745V24.328L115.319 11.3104ZM120.979 22.8788V22.6164C120.979 21.6253 121.12 20.7134 121.403 19.8805C121.686 19.0393 122.099 18.3106 122.64 17.6943C123.181 17.078 123.848 16.5991 124.639 16.2576C125.43 15.9078 126.338 15.7329 127.362 15.7329C128.387 15.7329 129.299 15.9078 130.098 16.2576C130.898 16.5991 131.568 17.078 132.11 17.6943C132.659 18.3106 133.076 19.0393 133.359 19.8805C133.642 20.7134 133.784 21.6253 133.784 22.6164V22.8788C133.784 23.8616 133.642 24.7735 133.359 25.6147C133.076 26.4476 132.659 27.1763 132.11 27.801C131.568 28.4173 130.902 28.8962 130.111 29.2377C129.32 29.5791 128.412 29.7499 127.387 29.7499C126.363 29.7499 125.451 29.5791 124.651 29.2377C123.86 28.8962 123.19 28.4173 122.64 27.801C122.099 27.1763 121.686 26.4476 121.403 25.6147C121.12 24.7735 120.979 23.8616 120.979 22.8788ZM124.576 22.6164V22.8788C124.576 23.4451 124.626 23.974 124.726 24.4654C124.826 24.9568 124.985 25.3899 125.201 25.7646C125.426 26.1311 125.717 26.4184 126.076 26.6266C126.434 26.8349 126.871 26.939 127.387 26.939C127.887 26.939 128.316 26.8349 128.674 26.6266C129.032 26.4184 129.32 26.1311 129.536 25.7646C129.753 25.3899 129.911 24.9568 130.011 24.4654C130.119 23.974 130.173 23.4451 130.173 22.8788V22.6164C130.173 22.0668 130.119 21.5504 130.011 21.0673C129.911 20.576 129.748 20.1429 129.524 19.7681C129.307 19.385 129.02 19.0851 128.662 18.8686C128.303 18.6521 127.87 18.5438 127.362 18.5438C126.854 18.5438 126.421 18.6521 126.063 18.8686C125.713 19.0851 125.426 19.385 125.201 19.7681C124.985 20.1429 124.826 20.576 124.726 21.0673C124.626 21.5504 124.576 22.0668 124.576 22.6164ZM139.518 18.8686V29.5H135.92V15.9828H139.293L139.518 18.8686ZM138.993 22.2666H138.019C138.019 21.2672 138.148 20.3677 138.406 19.5682C138.664 18.7603 139.027 18.0732 139.493 17.5069C139.959 16.9322 140.513 16.495 141.154 16.1951C141.804 15.887 142.529 15.7329 143.328 15.7329C143.961 15.7329 144.54 15.8245 145.065 16.0077C145.589 16.191 146.039 16.4825 146.414 16.8822C146.797 17.282 147.089 17.8109 147.288 18.4688C147.497 19.1268 147.601 19.9305 147.601 20.8799V29.5H143.978V20.8675C143.978 20.2678 143.895 19.8014 143.728 19.4683C143.561 19.1351 143.316 18.9019 142.991 18.7687C142.674 18.6271 142.283 18.5563 141.817 18.5563C141.334 18.5563 140.913 18.6521 140.555 18.8436C140.205 19.0352 139.913 19.3017 139.68 19.6432C139.455 19.9763 139.285 20.3677 139.168 20.8175C139.051 21.2672 138.993 21.7503 138.993 22.2666ZM156.558 29.7499C155.509 29.7499 154.568 29.5833 153.735 29.2501C152.902 28.9087 152.194 28.4381 151.611 27.8385C151.036 27.2388 150.595 26.5434 150.287 25.7521C149.979 24.9526 149.824 24.1031 149.824 23.2036V22.7039C149.824 21.6795 149.97 20.7425 150.262 19.893C150.553 19.0435 150.97 18.3064 151.511 17.6818C152.061 17.0571 152.727 16.5782 153.51 16.2451C154.293 15.9036 155.176 15.7329 156.158 15.7329C157.116 15.7329 157.966 15.8911 158.707 16.2076C159.448 16.5241 160.069 16.9739 160.568 17.5569C161.076 18.1398 161.459 18.8394 161.718 19.6556C161.976 20.4635 162.105 21.363 162.105 22.3541V23.8532H151.361V21.4546H158.569V21.1798C158.569 20.6801 158.478 20.2345 158.295 19.843C158.12 19.4433 157.853 19.1268 157.495 18.8936C157.137 18.6604 156.679 18.5438 156.121 18.5438C155.646 18.5438 155.238 18.6479 154.897 18.8561C154.555 19.0643 154.276 19.3558 154.06 19.7306C153.851 20.1054 153.693 20.5468 153.585 21.0548C153.485 21.5546 153.435 22.1042 153.435 22.7039V23.2036C153.435 23.745 153.51 24.2447 153.66 24.7028C153.818 25.1608 154.039 25.5564 154.322 25.8896C154.613 26.2227 154.963 26.4809 155.371 26.6641C155.788 26.8474 156.258 26.939 156.783 26.939C157.433 26.939 158.036 26.814 158.594 26.5642C159.161 26.306 159.648 25.9187 160.056 25.4024L161.805 27.3013C161.522 27.7094 161.135 28.1008 160.643 28.4756C160.16 28.8504 159.577 29.1585 158.894 29.4001C158.211 29.6333 157.433 29.7499 156.558 29.7499ZM167.989 27.9759L171.574 15.9828H175.435L170 31.5363C169.884 31.8778 169.726 32.2443 169.526 32.6357C169.334 33.0271 169.072 33.3978 168.739 33.7476C168.414 34.1057 168.002 34.3972 167.502 34.6221C167.01 34.8469 166.407 34.9594 165.69 34.9594C165.349 34.9594 165.07 34.9385 164.853 34.8969C164.637 34.8553 164.379 34.797 164.079 34.722V32.086C164.17 32.086 164.266 32.086 164.366 32.086C164.466 32.0943 164.562 32.0985 164.653 32.0985C165.128 32.0985 165.515 32.0444 165.815 31.9361C166.115 31.8278 166.357 31.6613 166.54 31.4364C166.723 31.2198 166.869 30.9367 166.977 30.5869L167.989 27.9759ZM166.49 15.9828L169.426 25.7771L169.938 29.5874L167.489 29.8498L162.63 15.9828H166.49Z" fill="#E1E1E6"/>
</svg>
